<?xml version="1.0" encoding="UTF-8"?>
<svg id="Layer_2" data-name="Layer 2" xmlns="http://www.w3.org/2000/svg" viewBox="0 0 161.03 113.04">
  <defs>
    <style>
      .cls-1 {
        fill: #793b20;
      }

      .cls-2 {
        fill: #e49828;
      }

      .cls-3 {
        fill: #facf5e;
      }

      .cls-4 {
        fill: #fefefe;
      }

      .cls-5 {
        fill: #c4692b;
      }

      .cls-6 {
        fill: #fcefb5;
      }
    </style>
  </defs>
  <g id="Layer_1-2" data-name="Layer 1">
    <path class="cls-1" d="M147.89,0c.21,2.06.35,4.42.83,6.43,1.47,6.15,7.89,18.44,7.2,23.85-.44,3.41-8.57,9.46-10.54,12.45-.32.48-.61.86-.51,1.49,7.95,5.8,17.61,20.95,15.98,31.01-1.06,6.53-12.19,8.87-17.7,9.27-4.46.33-20.94.52-24.35-1.1-.49-.23-.95-.38-.78-1.04l5.92-25.35c-7.02,2.43-14.45,3.74-21.91,3.55-2.17,14.31-17.42,13.06-28.51,11.95.34.78.71,1.52.87,2.37,1.93,9.86,2.04,24.73-1.61,34.14-2.35,6.05-15.59,3.82-20.55,2.55C28.68,105.55-2.63,85.18.18,57.31,2.44,34.8,36.94,13.6,57.43,10.65c12.2-1.76,22.9,4.35,33.93,8.73,2.97,1.18,7.41,1.62,9.23,4.25.99,1.43,1.32,4.88,2.52,4.8,1.35-.09,5.52-1.86,7.02-2.5,2.93-1.25,6.39-3.14,8.97-5.01,9.38-6.79,15.41-20.14,28.79-20.92ZM102.21,32.5c-2.26.27-4.92-.19-7.24,0-1.01,4.56-.82,9.15-.98,13.77-.11,3.12-1.27,6.3.44,9.52,20.82,3.68,37.88-3.61,51.72-18.78.87-.96,6-6.83,6.15-7.37.66-2.29-4.61-14.5-5.67-17.63-.75-2.22-1.03-4.57-1.73-6.77-.42-1.34-1.25-.84-2.37-.35-8.71,3.79-13.87,13.59-21.44,19.03-4.06,2.92-14.06,8.01-18.89,8.58ZM43.05,18.5c-1.03.42-2,1.04-3,1.5-.67.31-1.33.67-2,1-.95.48-1.69,1.06-2.5,1.5-1.06.58-1.62.98-2.5,1.5-.92.55-1.51.85-2.5,1.5-.75.49-1.61.84-2.5,1.5s-1.86.62-2.5,2c-1.52.41-2.53.93-3,2.5-1.4-.06-1.77.9-2.5,1.5-.84.7-2.34,1.76-3,2.5-.13.15-.41.24-.5.5-.05.14.04.34,0,.5-1.5.09-2.15,1.53-3,2.5-.69.79-1.34,1.68-2,2.5-1.23,1.54-2.44,2.76-3.49,4.5C-.21,59.76,3.12,76.51,16.94,84.9c5.64,3.43,15.68,7.14,22.12,8.85,8.87,2.36,20.54,2.75,28.57,6.88.88.45,1.85,1.63,2.64,1.86.99.29,1.06-2.17,1.24-2.99.6-2.81,1.63-6.8.5-9.5.01-.33,0-.67,0-1,0-1.14.08-2.19,0-3.5-.09-1.48-.32-3.02-.5-4.5-.14-1.15-.37-2.06-.5-3-.11-.8-.41-1.44-.5-2-.17-1.03-.32-1.97-.5-3-1.97-10.98-10.26-38.23-8.94-47.2.19-1.31.48-3.02,2.19-2.83,2.49.28,1.1,4.89,1.27,6.78.99,11.24,5.42,25.88,7.98,37.25.55,2.44,1.61,1.07,3,1.5s1.44.69,3.49,1c1.66.25,4.18,1.04,5.49,0,.17,0,.33,0,.5,0,.82-.02,1.71.08,2.5,0s4.41-.79,4.53-1.33c-1.81-9.22-2.07-19.02-1.55-28.44.29-5.3,1.3-10.69,2.81-15.75-11.07-3.8-21.87-10.89-33.98-9.97-5.03.38-11.55,2.56-16.23,4.49ZM98.97,29.5c-.71-5.72-3.33-6.01-3.5,0h3.5ZM151.39,79c4.15-1.54,6.38-1.99,5.93-7.19-.49-5.6-3.4-11.39-6.52-15.97-1.29-1.89-6.97-9.45-9.07-9.24-.94.09-7.34,5.1-8.85,6.11s-3.64,1.36-4.57,2.93c-2.89,7.95-3.76,16.42-5.89,24.57.07.68,2.41.75,3,.79.66.05,1.34,0,2,0,.17,0,.33,0,.5,0,1.44.86,4.17.57,5.99.5,1.38-.06,2.55-.44,3.49-.5.66-.04,1.34.05,2,0,1.52-.12,2.68-.34,3.99-.5.79-.1,1.72.12,2.5,0,.99-.15,2.02-.28,3-.5,1.19-.27,1.64-.68,2.5-1ZM98.47,59.5h-4.5s1,6.5,1,6.5c1.17,1.04,4.28-5.2,3.49-6.5ZM21.79,92.79c8.8,7.42,31.04,17.64,42.49,16.73,9.39-.75,3.94-5.33-1.37-7.16-7.87-2.71-17.27-3.27-25.46-5.5-5.73-1.56-11.95-5.05-17.13-6.35-.27-.07-.81-.14-.73.24.81.55,1.53,1.47,2.2,2.04Z"/>
    <path class="cls-1" d="M109.33,74.11c5.27-.75,4.07,8.4,1.62,11.15-4,4.51-18.31,3.79-11.97-4.49,1.67-2.18,7.72-6.29,10.35-6.66ZM109.45,78.01c-.59-.67-8.43,4.84-8.47,5.75-.03.8,2.18.8,2.74.78,4.12-.12,6.11-2.44,5.73-6.53Z"/>
    <path class="cls-1" d="M92.84,88.62c10.32-1.86,12.7,12.37,1.94,11.33-8.87-.86-8.58-10.13-1.94-11.33ZM93.34,92.1c-3.85,1.14-1.16,4.27,2.45,4.37,5.12.14,1.74-5.61-2.45-4.37Z"/>
    <path class="cls-3" d="M43.05,18.5c4.68-1.93,11.21-4.11,16.23-4.49,12.11-.92,22.92,6.17,33.98,9.97-1.51,5.06-2.52,10.45-2.81,15.75-.52,9.42-.26,19.23,1.55,28.44-.12.54-3.77,1.25-4.53,1.33.11-3.58-.13-7.19-.02-10.77.04-1.26,1.49-4.73-.73-4.73-.96,0-1.04.52-1.22,1.28-1.05,4.51-.29,9.61-.53,14.22-.17,0-.33,0-.5,0-1.16-.03-2.34.03-3.5,0,0-3.73.2-7.53.51-11.25.13-1.51,1.94-6.75-.25-6.76-1.39,0-1.54,2.73-1.69,3.82-.63,4.69-.58,9.47-.56,14.19-2.05-.31-2.08-.56-3.49-1-.74-5.35.72-10.75.97-15.82.15-3.05-3.11-1.61-2.84,1.21l-1.13,13.12c-2.56-11.37-6.99-26.02-7.98-37.25-.17-1.89,1.23-6.5-1.27-6.78-1.71-.19-2,1.52-2.19,2.83-1.32,8.97,6.97,36.22,8.94,47.2-6.59-1.19-4.37,2.17.5,3,.09.56.39,1.2.5,2-1.34-.3-7.89-1.61-6.99,1.25.39,1.24,6.02.42,7.48,1.75.18,1.48.41,3.02.5,4.5-2.31-.64-10.41-4.29-10.5-.25-.03,1.41,2.95.6,4.21.8,2.73.43,4.01,1.77,6.28,2.96,0,.33.01.67,0,1-.06,1.66.05,3.34,0,5-2.21-.92-4.02-2.77-6.46-3.28-2-.41-4.01-.17-6.02-.22-.45,2.71,4.17,2.16,6.39,2.85,3.06.95,4.37,2.21,5.59,5.15-.18.82-.25,3.28-1.24,2.99-.78-.23-1.76-1.41-2.64-1.86-8.03-4.14-19.71-4.53-28.57-6.88-6.44-1.71-16.48-5.42-22.12-8.85C3.12,76.51-.21,59.76,8.1,46c.63,2.07-.11,4.42,0,6.75.38,7.27,4.91,17.14,12.11,19.87,1.17.44,2.79.54,2.12-1.13-.28-.69-5.45-3.9-6.57-5.16-6.04-6.8-5.75-16.41-4.16-24.83.66-.82,1.31-1.71,2-2.5l.06,8.69c.83,5.12,2.41,10.35,6.11,14.13,1.31,1.34,5.2,4.86,5.81,1.45-9.37-5.15-11.37-17.11-8.98-26.77.04-.16-.05-.36,0-.5l.5-.5c.66-.74,2.16-1.8,3-2.5-1.21,4.33-1.38,9.56-.16,13.91.68,2.41,4.92,10.45,7.86,9.56,2.41-.73-2.64-4.39-3.42-5.51-3.32-4.72-3.36-14.1-1.78-19.47.46-1.57,1.47-2.09,3-2.5-1.21,2.64-.51,9.43.48,12.27.62,1.78,4.18,7.75,6.25,7.23,2.47-.62-2.03-4.41-2.46-5.03-3.35-4.84-2.92-11.02-1.78-16.47.89-.66,1.75-1.01,2.5-1.5-.12,1.27-.57,2.44-.54,3.75.04,1.85,1.41,10.53,4.28,9.75,1.9-1.37-.32-2.44-.78-3.71-1.26-3.43-1.21-7.74-.46-11.29.87-.52,1.43-.92,2.5-1.5-.16,2.49.01,4.62.75,7,.31.99.51,3.12,1.99,2.5,1.63-.69-.62-5.54-.69-7.3-.04-1.18.71-2.43.45-3.7.66-.33,1.32-.69,2-1,1.62-.28.84.83.98,1.74.15.99-.27,3.36,1.76,2.75,1.45-.44-.29-4.7.25-6ZM55.04,16c-2.79-1.48-8.67,4.4-6.03,6.29,2.04,1.46,2.53-1.36,3.31-2.25,1.39-1.57,3.48-.9,2.72-4.04ZM64.02,17.51c-.99-1.46-5.34-.04-6.73,1-7.68,5.74-4,20.97-2.01,29.01.63,2.54,1.86,7.76,4.23,3.26-1.9-6.48-6.49-24.87-.81-29.61,1.09-.91,6.82-1.47,5.33-3.66ZM67.34,19.06c-4.34,1.44,5.07,5.58,6.54,5.84,1.72.31,3.22-.06,2.56-2.07-.3-.93-7.99-4.13-9.1-3.77Z"/>
    <path class="cls-4" d="M102.21,32.5c4.83-.57,14.83-5.67,18.89-8.58,7.57-5.43,12.73-15.24,21.44-19.03,1.12-.49,1.94-.98,2.37.35.7,2.2.98,4.55,1.73,6.77,1.06,3.13,6.34,15.34,5.67,17.63-.16.54-5.28,6.41-6.15,7.37-13.83,15.17-30.9,22.46-51.72,18.78-1.72-3.21-.55-6.4-.44-9.52.16-4.62-.03-9.21.98-13.77,2.31-.19,4.98.27,7.24,0Z"/>
    <path class="cls-3" d="M151.39,79c.26-2.08-.41-2.78-2.49-2.5v3.5c-.97.22-2.01.35-3,.5.06-1.19,1.64-6.71.24-7.01-2.44-.52-1.83,5.31-2.74,7.01-1.31.16-2.48.38-3.99.5,2.1-1.02,2.51-10.89,1.74-11-.55-.08-1.18.05-1.74,0,.12,3.77-.69,7.51-2,11-.95.06-2.11.44-3.49.5,1.06-1.83,3.99-13.52,1.74-14-.88-.19-1.02.65-1.21,1.28-1.11,3.69-.36,8.31-2.97,11.91-.49.64-2.65.27-3.55.31-.17,0-.33,0-.5,0,1.24-2.18,3.79-13.1,2.78-14.53-.41-.58-2.09-1.1-2.29.27-.32,2.26-.18,5.08-.62,7.39s-1.76,4.45-1.87,6.88c-.59-.04-2.93-.12-3-.79,2.12-8.15,2.99-16.62,5.89-24.57.93-1.57,3.05-1.91,4.57-2.93s7.91-6.01,8.85-6.11c2.1-.21,7.78,7.35,9.07,9.24,3.12,4.58,6.03,10.36,6.52,15.97.46,5.21-1.77,5.65-5.93,7.19Z"/>
    <path class="cls-2" d="M21.79,92.79c-.68-.57-1.39-1.5-2.2-2.04-.08-.38.46-.31.73-.24,5.18,1.3,11.4,4.79,17.13,6.35,8.19,2.24,17.59,2.79,25.46,5.5,5.32,1.83,10.76,6.41,1.37,7.16-11.45.91-33.69-9.31-42.49-16.73Z"/>
    <path class="cls-5" d="M11.6,41.5c-1.59,8.42-1.87,18.03,4.16,24.83,1.12,1.26,6.29,4.47,6.57,5.16.68,1.66-.95,1.57-2.12,1.13-7.2-2.73-11.73-12.6-12.11-19.87-.12-2.33.62-4.67,0-6.75,1.05-1.74,2.27-2.96,3.49-4.5Z"/>
    <path class="cls-5" d="M16.59,36.5c-2.39,9.66-.39,21.62,8.98,26.77-.61,3.41-4.5-.1-5.81-1.45-3.69-3.78-5.28-9.02-6.11-14.13l-.06-8.69c.85-.97,1.5-2.41,3-2.5Z"/>
    <path class="cls-5" d="M22.58,31.5c-1.58,5.36-1.54,14.75,1.78,19.47.79,1.12,5.83,4.77,3.42,5.51-2.94.89-7.18-7.15-7.86-9.56-1.22-4.35-1.05-9.58.16-13.91.72-.6,1.09-1.56,2.5-1.5Z"/>
    <path class="cls-5" d="M25.58,29c.63-1.38,1.59-1.33,2.5-2-1.14,5.45-1.57,11.63,1.78,16.47.43.62,4.93,4.41,2.46,5.03-2.07.52-5.63-5.45-6.25-7.23-.99-2.84-1.69-9.63-.48-12.27Z"/>
    <path class="cls-5" d="M75.5,68.5c-1.38-.43-2.45.94-3-1.5l1.13-13.12c-.27-2.81,2.99-4.26,2.84-1.21-.25,5.08-1.71,10.48-.97,15.82Z"/>
    <path class="cls-5" d="M79,69.5c-.02-4.72-.07-9.5.56-14.19.15-1.09.29-3.82,1.69-3.82,2.2,0,.38,5.25.25,6.76-.31,3.72-.51,7.51-.51,11.25,1.16.03,2.34-.04,3.5,0-1.31,1.04-3.84.25-5.49,0Z"/>
    <path class="cls-5" d="M87.49,69.5c-.79.08-1.68-.02-2.5,0,.23-4.62-.52-9.71.53-14.22.18-.76.26-1.28,1.22-1.28,2.22,0,.77,3.47.73,4.73-.11,3.58.13,7.19.02,10.77Z"/>
    <path class="cls-5" d="M127.43,81c-.66,0-1.34.05-2,0,.11-2.43,1.4-4.46,1.87-6.88s.31-5.13.62-7.39c.19-1.36,1.88-.84,2.29-.27,1.01,1.43-1.54,12.35-2.78,14.53Z"/>
    <path class="cls-5" d="M33.07,24c-.75,3.55-.8,7.86.46,11.29.46,1.26,2.68,2.33.78,3.71-2.87.79-4.24-7.9-4.28-9.75-.03-1.31.42-2.48.54-3.75.98-.65,1.57-.95,2.5-1.5Z"/>
    <path class="cls-5" d="M133.92,81.5c-1.82.07-4.55.36-5.99-.5.9-.04,3.06.33,3.55-.31,2.61-3.6,1.86-8.22,2.97-11.91.19-.63.34-1.46,1.21-1.28,2.25.48-.68,12.17-1.74,14Z"/>
    <path class="cls-5" d="M71.51,99.5c-1.22-2.94-2.53-4.2-5.59-5.15-2.22-.69-6.83-.14-6.39-2.85,2.01.05,4.02-.2,6.02.22,2.44.51,4.25,2.36,6.46,3.28.05-1.66-.06-3.34,0-5,1.13,2.7.1,6.69-.5,9.5Z"/>
    <path class="cls-5" d="M72.01,85.5c.08,1.31,0,2.36,0,3.5-2.27-1.19-3.55-2.53-6.28-2.96-1.26-.2-4.24.61-4.21-.8.09-4.04,8.19-.39,10.5.25Z"/>
    <path class="cls-5" d="M137.41,81c1.31-3.49,2.12-7.23,2-11,.56.05,1.19-.08,1.74,0,.77.11.35,9.99-1.74,11-.66.05-1.34-.04-2,0Z"/>
    <path class="cls-5" d="M38.06,21c.26,1.27-.49,2.51-.45,3.7.07,1.76,2.32,6.61.69,7.3-1.49.63-1.68-1.51-1.99-2.5-.74-2.38-.91-4.51-.75-7,.81-.44,1.54-1.02,2.5-1.5Z"/>
    <path class="cls-2" d="M98.47,59.5c.79,1.29-2.32,7.54-3.49,6.5l-1-6.5h4.5Z"/>
    <path class="cls-5" d="M71.01,78c.13.94.36,1.85.5,3-1.46-1.33-7.09-.52-7.48-1.75-.9-2.85,5.65-1.55,6.99-1.25Z"/>
    <path class="cls-5" d="M143.4,80.5c.91-1.7.3-7.52,2.74-7.01,1.4.3-.18,5.81-.24,7.01-.78.12-1.7-.1-2.5,0Z"/>
    <path class="cls-5" d="M43.05,18.5c-.55,1.3,1.2,5.56-.25,6-2.03.61-1.6-1.76-1.76-2.75-.14-.91.64-2.03-.98-1.74,1-.46,1.97-1.08,3-1.5Z"/>
    <path class="cls-2" d="M98.97,29.5h-3.5c.16-6.01,2.79-5.72,3.5,0Z"/>
    <path class="cls-5" d="M70.01,73c.18,1.03.33,1.97.5,3-4.87-.83-7.09-4.19-.5-3Z"/>
    <path class="cls-5" d="M151.39,79c-.86.32-1.31.73-2.5,1v-3.5c2.08-.28,2.76.43,2.5,2.5Z"/>
    <path class="cls-5" d="M16.59,36c.09-.26.37-.35.5-.5l-.5.5Z"/>
    <path class="cls-3" d="M109.45,78.01c.38,4.09-1.61,6.4-5.73,6.53-.57.02-2.78.01-2.74-.78.04-.91,7.89-6.42,8.47-5.75Z"/>
    <path class="cls-3" d="M93.34,92.1c4.18-1.24,7.56,4.51,2.45,4.37-3.6-.1-6.3-3.23-2.45-4.37Z"/>
    <path class="cls-6" d="M64.02,17.51c1.49,2.19-4.24,2.75-5.33,3.66-5.68,4.74-1.09,23.12.81,29.61-2.37,4.5-3.6-.71-4.23-3.26-1.99-8.04-5.67-23.27,2.01-29.01,1.39-1.04,5.74-2.46,6.73-1Z"/>
    <path class="cls-6" d="M67.34,19.06c1.11-.37,8.8,2.84,9.1,3.77.66,2.01-.85,2.38-2.56,2.07-1.46-.26-10.88-4.4-6.54-5.84Z"/>
    <path class="cls-6" d="M55.04,16c.77,3.13-1.33,2.46-2.72,4.04-.78.89-1.27,3.71-3.31,2.25-2.64-1.89,3.24-7.77,6.03-6.29Z"/>
  </g>
</svg>