<?xml version="1.0" encoding="UTF-8"?>
<svg id="Layer_2" data-name="Layer 2" xmlns="http://www.w3.org/2000/svg" viewBox="0 0 128 90.28">
  <defs>
    <style>
      .cls-1 {
        fill: #793b20;
      }

      .cls-2 {
        fill: #e49828;
      }

      .cls-3 {
        fill: #facf5e;
      }

      .cls-4 {
        fill: #c4692b;
      }

      .cls-5 {
        fill: #fcefb5;
      }
    </style>
  </defs>
  <g id="Layer_1-2" data-name="Layer 1">
    <g>
      <path class="cls-1" d="M94.36,8.19c7.89,6.78,12.26,15.96,18.9,23.31,7.98,8.83,17.63,11.07,13.91,25.92-1.84,7.36-13.96,19.1-20.38,23.09-17.08,10.58-45.14,11.72-64.35,7.42-4.9-1.1-14.67-3.09-13.67-9.57.86-5.6,4.07-12.72,6.78-17.71.56-1.03,4.18-6.09,3.58-6.66-8.61-1.12-17.85-3.12-25.96-6.26-4.63-1.79-15.5-6.37-12.74-12.74S23.66,17.21,30.14,13.74c19.1-10.26,45.09-22,64.23-5.55ZM6.18,39.5c.83.65.83.79,2,1.5,1.24.75,1.81.93,3,1.5.68.33,1.12.63,2,1,1.32.56,2.65,1.02,3.99,1.5.76.27,1.43.31,2,.5,1.25.42,2.6,1.1,3.99,1.5.85.24,1.72.3,2.5.5,1.17.31,2.3.73,3.49,1,1.42.32,2.32.28,3.49.5,1.49.29,2.74.76,4.49,1,.82.11,1.58.48,2.5.5,3.27.09,4.04-.36,4.99-3.5,1.49-.22,2.44-1.85,3.49-3,1.59-1.72,3.34-3.22,3.99-5.5,1.52-.06,2.12-1.57,3-2.5,1.73-1.85,2.59-3.12,3.99-5,.72-.96,1.67-1.63,2.5-3,.96-1.59,1.87-3.07,2.35-4.9s.44-5.76,1.64-6.36c2.36-1.2,3.01,1.42,2.89,3.36-.66,10.52-13.19,20.77-19.62,28.39s-12.59,16.52-15.22,26.51c5.79-.93,11.71,1.81,17.37,2.85,18.46,3.41,64.82,1.33,72.24-20.36,4.44-12.98-6.97-16.81-13.98-24.98-13-15.17-17.1-30.29-41.43-28.5-16.27,1.2-42.89,15.54-56.13,25.29-1.74,1.28-6.93,5.17-7.66,6.85-1.13,2.58.98,2.47,2.13,3.36ZM103.03,78c-15.1,4.2-30.41,6.28-46.11,4.43-5.92-.7-18.18-4.86-23.02-3.92-3.92.76.44,3.01,2.25,3.72,16.87,6.68,43.66,5.52,60.53-.86l6.36-3.38Z"/>
      <path class="cls-3" d="M6.18,39.5c-1.15-.89-3.25-.78-2.13-3.36.73-1.68,5.92-5.57,7.66-6.85C24.96,19.55,51.57,5.2,67.85,4c24.32-1.79,28.42,13.33,41.43,28.5,7.01,8.18,18.41,12.01,13.98,24.98-7.42,21.69-53.78,23.77-72.24,20.36-5.66-1.04-11.58-3.78-17.37-2.85,2.63-9.98,8.64-18.69,15.22-26.51s18.96-17.88,19.62-28.39c.12-1.94-.53-4.55-2.89-3.36-1.2.61-1.17,4.59-1.64,6.36s-1.4,3.31-2.35,4.9c.5-1.4-.46-10.81-2.76-7.52-.57.81.86,8.73.27,10.52-1.4,1.88-2.26,3.15-3.99,5,.67-1.91.43-11.61-.48-12.27-3.25-2.36-1.47,6.76-1.49,8.03-.02,1.71-.55,5.07-1.02,6.74-.66,2.28-2.4,3.78-3.99,5.5l1-16.25c-.33-1.89-2.25-1.87-2.52.47-.68,5.97-.15,12.77-1.97,18.77-.95,3.14-1.72,3.59-4.99,3.5.54-2.84,3.66-20.89,2.49-22-.13-.12-1.51.08-1.99,0-.29,7.28-1.6,14.38-3,21.5-1.76-.24-3-.71-4.49-1,1.5-5.04,3.63-11.49,3.02-16.77-.07-.59-.12-1.51-.78-1.72-2.61-.82-1.59,4.75-1.75,6.24-.35,3.23-1.44,7.36-2.62,10.4-.31.78-.13,1.61-1.36,1.36-1.19-.27-2.33-.69-3.49-1,1.3-2.9,2.45-6.65,2.94-9.81.22-1.45,1.1-5.81-.7-6.19-.89-.19-1,.67-1.21,1.27-.76,2.17-.63,5.63-1.27,8.23-.51,2.07-1.53,4.01-2.25,6-1.4-.4-2.74-1.08-3.99-1.5,1.37-1.27,3.79-11.22,2.99-12l-2.27.47-2.72,11.03c-1.35-.48-2.68-.94-3.99-1.5.95-1.03,3.5-8.51,3-9-.62.1-2.12-.23-2.45.05s-1.71,6.94-2.55,7.95c-1.19-.57-1.75-.75-3-1.5.34-.99,2.54-4.23,1.99-4.98-.06-.08-1.56-.57-1.99-.31-.68.42-1.39,2.98-2,3.79ZM73.94,4.57c-1.59.43-1.6,2.23-.34,3.16.74.54,2.03.52,2.93,1.06s2.92,3.69,4.31,1.74c1.75-2.45-4.71-6.56-6.91-5.96ZM72.68,13.39c1.03.61,2.92-.41,2.91-1.64-.02-3.1-9.5-6.05-11.46-3.45-2.51,3.33,4.37,2.52,5.96,2.94,1.88.5,2.14,1.89,2.58,2.15ZM77.38,28.32c.75-1.9,3.11-10.5.87-11.25-3.79-1.27-2.38,4.11-2.79,6.56-.57,3.42-3.58,7.87-5.87,10.48-.65.74-10.95,9.44-4.27,8.39,1.31-.2,8.18-7.7,9.25-9.27.82-1.19,2.37-3.84,2.8-4.93ZM113.78,49.5c-1.74.48.12,4.19,1.43,3.97,2.36-.41.57-4.52-1.43-3.97ZM110.52,50.5c-.18-.18-1.89-.06-2.28.48-1.08,1.5,2.66,7.63,5.01,7.02,2.66-.69-1.78-4.07-2.17-4.81-.52-.99-.47-2.59-.56-2.69ZM104.47,52.07c-.97-.62-2.22-.13-2.2,1.18.05,3.18,4.21,9.17,7.76,9.24.38-2.53-2.49-3.44-3.7-5.54-.51-.9-1.64-4.74-1.86-4.88ZM98.49,54.06c-.16-.13-1.87-.13-1.94-.06-1.94,1.86,4.66,13.4,8.98,11.5.6-2.6-2.72-2.77-4.42-4.82-1.48-1.79-2.35-6.39-2.63-6.62ZM92.48,56.57c-.39-.27-1.36.02-1.93-.07-1.16,3.4,4.6,12.93,8.18,11.98,3.04-.81-2.62-3.93-3.41-5.01-1.16-1.57-2.54-6.69-2.85-6.9ZM85.94,59.12c-.25-.27-1.64-.79-1.87-.62.04.47-.33.92-.35,1.34-.09,2.67,5,12.06,8.04,11.14,2.33-.71-2.33-4.13-3.12-5.31-1.06-1.57-2.23-6.05-2.7-6.55ZM78.5,60.07c-.44-.27-1.34,0-1.92-.08-1.31,1.24,3.72,14.1,7.98,12.5.55-2.38-1.37-2.38-2.5-3.74-1.48-1.78-3.16-8.44-3.56-8.69ZM58.04,61.06c-.28-.17-1.67-.17-1.88,0-1.06.86-.16,10.89,3.44,9.44-.74-1.31-1.15-9.19-1.56-9.44ZM75.58,72.5c.84-.84-2.18-4.26-2.73-5.51s-1.35-6.34-3-5.99c-1.96.42.76,7.31,1.47,8.51.57.97,3.03,4.21,4.26,2.98ZM62.85,61.5c-1.69.54-.09,5.49.36,6.63.47,1.21,2.57,5.29,4.12,4.86,1.9-.52-1.34-4.79-1.83-6.16-.54-1.52-.67-5.96-2.65-5.33ZM53.11,70c-.55-1.61.34-8.31-2.24-7.5-1.58.5-.94,9.08,2.24,7.5Z"/>
      <path class="cls-2" d="M103.03,78l-6.36,3.38c-16.87,6.38-43.65,7.54-60.53.86-1.8-.71-6.17-2.96-2.25-3.72,4.84-.94,17.09,3.23,23.02,3.92,15.7,1.85,31.01-.23,46.11-4.43Z"/>
      <path class="cls-4" d="M37.14,50c1.4-7.12,2.71-14.23,3-21.5.48.08,1.86-.12,1.99,0,1.17,1.11-1.95,19.16-2.49,22-.92-.02-1.68-.39-2.5-.5Z"/>
      <path class="cls-4" d="M48.12,44c-1.06,1.15-2.01,2.78-3.49,3,1.82-6.01,1.29-12.8,1.97-18.77.27-2.35,2.18-2.36,2.52-.47l-1,16.25Z"/>
      <path class="cls-4" d="M32.64,49c-1.17-.22-2.08-.18-3.49-.5,1.23.26,1.06-.57,1.36-1.36,1.18-3.04,2.27-7.17,2.62-10.4.16-1.48-.86-7.06,1.75-6.24.66.21.71,1.14.78,1.72.61,5.28-1.52,11.73-3.02,16.77Z"/>
      <path class="cls-4" d="M25.65,47.5c-.77-.2-1.65-.26-2.5-.5.72-1.99,1.74-3.93,2.25-6,.64-2.6.51-6.05,1.27-8.23.21-.6.32-1.46,1.21-1.27,1.8.38.92,4.74.7,6.19-.48,3.16-1.64,6.91-2.94,9.81Z"/>
      <path class="cls-4" d="M55.11,36c-.87.93-1.47,2.44-3,2.5.48-1.67,1-5.02,1.02-6.74.02-1.28-1.76-10.39,1.49-8.03.91.66,1.15,10.36.48,12.27Z"/>
      <path class="cls-4" d="M17.17,45l2.72-11.03,2.27-.47c.8.78-1.63,10.73-2.99,12-.56-.19-1.24-.23-2-.5Z"/>
      <path class="cls-4" d="M61.6,28c-.83,1.37-1.78,2.04-2.5,3,.6-1.78-.83-9.71-.27-10.52,2.3-3.3,3.26,6.12,2.76,7.52Z"/>
      <path class="cls-4" d="M11.17,42.5c.84-1.01,2.23-7.68,2.55-7.95s1.83.05,2.45-.05c.5.49-2.04,7.97-3,9-.88-.37-1.32-.67-2-1Z"/>
      <path class="cls-4" d="M6.18,39.5c.61-.81,1.31-3.36,2-3.79.42-.26,1.93.22,1.99.31.55.75-1.65,3.99-1.99,4.98-1.17-.71-1.16-.85-2-1.5Z"/>
      <path class="cls-5" d="M77.38,28.32c-.43,1.08-1.99,3.74-2.8,4.93-1.08,1.57-7.94,9.06-9.25,9.27-6.68,1.04,3.63-7.65,4.27-8.39,2.29-2.62,5.29-7.07,5.87-10.48.41-2.45-1-7.83,2.79-6.56,2.24.75-.12,9.35-.87,11.25Z"/>
      <path class="cls-5" d="M72.68,13.39c-.44-.26-.7-1.65-2.58-2.15-1.59-.42-8.47.39-5.96-2.94,1.96-2.6,11.44.34,11.46,3.45,0,1.23-1.88,2.25-2.91,1.64Z"/>
      <path class="cls-4" d="M92.48,56.57c.31.21,1.69,5.33,2.85,6.9.79,1.08,6.45,4.2,3.41,5.01-3.58.96-9.34-8.58-8.18-11.98.56.09,1.53-.2,1.93.07Z"/>
      <path class="cls-4" d="M85.94,59.12c.47.5,1.64,4.98,2.7,6.55.8,1.17,5.45,4.6,3.12,5.31-3.04.92-8.13-8.47-8.04-11.14.01-.42.39-.87.35-1.34.23-.17,1.62.36,1.87.62Z"/>
      <path class="cls-4" d="M78.5,60.07c.4.24,2.07,6.91,3.56,8.69,1.13,1.36,3.05,1.36,2.5,3.74-4.26,1.6-9.29-11.26-7.98-12.5.58.08,1.48-.19,1.92.08Z"/>
      <path class="cls-4" d="M98.49,54.06c.28.23,1.14,4.83,2.63,6.62,1.7,2.05,5.02,2.22,4.42,4.82-4.32,1.9-10.93-9.64-8.98-11.5.07-.07,1.78-.08,1.94.06Z"/>
      <path class="cls-4" d="M62.85,61.5c1.99-.63,2.11,3.81,2.65,5.33.49,1.37,3.73,5.64,1.83,6.16-1.56.43-3.65-3.65-4.12-4.86-.45-1.14-2.05-6.09-.36-6.63Z"/>
      <path class="cls-4" d="M104.47,52.07c.22.14,1.35,3.99,1.86,4.88,1.2,2.11,4.08,3.02,3.7,5.54-3.55-.08-7.71-6.06-7.76-9.24-.02-1.31,1.23-1.8,2.2-1.18Z"/>
      <path class="cls-4" d="M75.58,72.5c-1.23,1.23-3.68-2.01-4.26-2.98-.71-1.2-3.43-8.09-1.47-8.51,1.65-.36,2.42,4.68,3,5.99s3.57,4.67,2.73,5.51Z"/>
      <path class="cls-5" d="M73.94,4.57c2.2-.6,8.65,3.51,6.91,5.96-1.39,1.94-3.36-1.18-4.31-1.74s-2.19-.51-2.93-1.06c-1.26-.92-1.25-2.72.34-3.16Z"/>
      <path class="cls-4" d="M58.04,61.06c.41.25.82,8.12,1.56,9.44-3.6,1.45-4.5-8.58-3.44-9.44.2-.16,1.6-.16,1.88,0Z"/>
      <path class="cls-4" d="M110.52,50.5c.1.1.04,1.7.56,2.69.39.74,4.83,4.12,2.17,4.81-2.36.61-6.1-5.53-5.01-7.02.39-.54,2.1-.66,2.28-.48Z"/>
      <path class="cls-4" d="M53.11,70c-3.18,1.59-3.82-7-2.24-7.5,2.58-.81,1.69,5.89,2.24,7.5Z"/>
      <path class="cls-4" d="M113.78,49.5c1.99-.55,3.79,3.56,1.43,3.97-1.31.22-3.17-3.49-1.43-3.97Z"/>
    </g>
  </g>
</svg>